name analog
datacolumns 19
datarows 32
range 0.0 0.0155
endheader
time	ground_force_vx	ground_force_vy	ground_force_vz	ground_force_px	ground_force_py	ground_force_pz	l_ground_force_vx	l_ground_force_vy	l_ground_force_vz	l_ground_force_px	l_ground_force_py	l_ground_force_pz	ground_torque_x	ground_torque_y	ground_torque_z	l_ground_torque_x	l_ground_torque_y	l_ground_torque_z
0.0	-0.0	-0.0	-0.0	1.504710078239441	40.3997917175293	-370.6737365722656	-8.060834884643555	-81.20301818847656	-542.1163940429688	-0.0	-0.0	-0.0	-0.0	-0.0	-0.0	137152.171875	-9289.8603515625	-3823.35546875
0.0005	-0.0	-0.0	-0.0	1.0167399644851685	39.876686096191406	-371.0986328125	-8.504448890686035	-81.99217224121094	-542.7208251953125	-0.0	-0.0	-0.0	-0.0	-0.0	-0.0	137416.234375	-9283.203125	-3798.148681640625
0.001	-0.0	-0.0	-0.0	1.237180471420288	39.9656867980957	-373.2916870117188	-8.107915878295898	-81.89759063720703	-544.0707397460938	-0.0	-0.0	-0.0	-0.0	-0.0	-0.0	137702.25	-9086.4453125	-3690.95458984375
0.0015	-0.0	-0.0	-0.0	0.8145809769630432	39.54315185546875	-372.37353515625	-8.072681427001953	-82.49246215820312	-544.979736328125	-0.0	-0.0	-0.0	-0.0	-0.0	-0.0	137890.28125	-8983.271484375	-3764.36328125
0.002	-0.0	-0.0	-0.0	0.5430933237075806	39.953651428222656	-371.192138671875	-8.284917831420898	-82.73841857910156	-545.75341796875	-0.0	-0.0	-0.0	-0.0	-0.0	-0.0	138191.40625	-8683.787109375	-3756.815673828125
0.0025	-0.0	-0.0	-0.0	0.0	39.88427734375	-370.8264770507813	-8.29620361328125	-83.09922790527344	-546.5900268554688	-0.0	-0.0	-0.0	-0.0	-0.0	-0.0	137999.765625	-8732.2109375	-3764.67626953125
0.003	-0.0	-0.0	-0.0	-0.7251883745193481	39.55091094970703	-369.3806762695313	-8.261587142944336	-83.37567138671875	-546.1635131835938	-0.0	-0.0	-0.0	-0.0	-0.0	-0.0	137857.09375	-8325.353515625	-3714.13134765625
0.0035	-0.0	-0.0	-0.0	-0.7595359683036804	39.66303253173828	-367.958251953125	-8.65932846069336	-83.4639892578125	-545.678955078125	-0.0	-0.0	-0.0	-0.0	-0.0	-0.0	137589.171875	-8296.6669921875	-3798.517822265625
0.004	-0.0	-0.0	-0.0	-2.14105224609375	39.53977966308594	-364.69970703125	-8.559493064880371	-83.15595245361328	-543.1544189453125	-0.0	-0.0	-0.0	-0.0	-0.0	-0.0	137274.390625	-8094.6025390625	-3887.334228515625
0.0045000000000000005	-0.0	-0.0	-0.0	-2.387406826019287	39.72953414916992	-363.5118408203125	-8.361419677734375	-83.37567138671875	-543.1019897460938	-0.0	-0.0	-0.0	-0.0	-0.0	-0.0	137005.640625	-8031.662109375	-3909.333740234375
0.005	-0.0	-0.0	-0.0	-3.0557188987731934	39.11697769165039	-362.2732849121094	-8.206439018249512	-83.4639892578125	-542.2767333984375	-0.0	-0.0	-0.0	-0.0	-0.0	-0.0	136474.546875	-7529.3994140625	-3776.002685546875
0.0055	-0.0	-0.0	-0.0	-3.802450180053711	38.82767868041992	-363.1117858886719	-8.361177444458008	-83.18863677978516	-540.3106689453125	-0.0	-0.0	-0.0	-0.0	-0.0	-0.0	136201.390625	-7327.76416015625	-4102.01806640625
0.006	-0.0	-0.0	-0.0	-3.434558629989624	39.339988708496094	-360.59674072265625	-8.43864631652832	-83.0996322631836	-538.609619140625	-0.0	-0.0	-0.0	-0.0	-0.0	-0.0	135304.265625	-7172.43017578125	-3957.6376953125
0.006500000000000001	-0.0	-0.0	-0.0	-4.505497455596924	39.33966064453125	-360.4216003417969	-9.115127563476562	-83.15505981445312	-536.3837890625	-0.0	-0.0	-0.0	-0.0	-0.0	-0.0	134785.765625	-6941.24853515625	-4028.556884765625
0.007	-0.0	-0.0	-0.0	-4.337194919586182	38.98301315307617	-361.2158508300781	-9.026498794555664	-82.75741577148438	-534.8569946289062	-0.0	-0.0	-0.0	-0.0	-0.0	-0.0	134152.078125	-6340.58642578125	-4206.39111328125
0.0075	-0.0	-0.0	-0.0	-4.147589683532715	39.48616409301758	-360.107666015625	-8.992667198181152	-82.72468566894531	-532.4130249023438	-0.0	-0.0	-0.0	-0.0	-0.0	-0.0	133364.484375	-6346.576171875	-4354.6923828125
0.008	-0.0	-0.0	-0.0	-4.571528434753418	39.452110290527344	-363.1552429199219	-8.914596557617188	-82.072509765625	-529.8837280273438	-0.0	-0.0	-0.0	-0.0	-0.0	-0.0	132890.0	-6030.6904296875	-4335.748046875
0.0085	-0.0	-0.0	-0.0	-4.238761425018311	39.04994201660156	-362.266845703125	-9.347090721130373	-81.79666137695312	-528.8369750976562	-0.0	-0.0	-0.0	-0.0	-0.0	-0.0	132040.09375	-5559.8583984375	-4365.60986328125
0.009000000000000001	-0.0	-0.0	-0.0	-3.914468288421631	39.65224838256836	-364.7494201660156	-9.723365783691406	-81.8073501586914	-525.1664428710938	-0.0	-0.0	-0.0	-0.0	-0.0	-0.0	131369.921875	-5486.4560546875	-4473.6962890625
0.0095	-0.0	-0.0	-0.0	-3.443569660186768	39.8305892944336	-365.85198974609375	-9.591463088989258	-80.92396545410156	-524.1731567382812	-0.0	-0.0	-0.0	-0.0	-0.0	-0.0	130528.2734375	-5008.91357421875	-4569.5517578125
0.01	-0.0	-0.0	-0.0	-3.222250938415528	40.14067077636719	-367.9289855957031	-9.960376739501951	-80.5918197631836	-519.1465454101562	-0.0	-0.0	-0.0	-0.0	-0.0	-0.0	129904.328125	-4744.61376953125	-4688.3720703125
0.0105	-0.0	-0.0	-0.0	-2.7337489128112797	40.47578430175781	-367.9538879394531	-9.956762313842772	-80.19609069824219	-516.3536376953125	-0.0	-0.0	-0.0	-0.0	-0.0	-0.0	129096.296875	-4368.1884765625	-4740.49609375
0.011	-0.0	-0.0	-0.0	-2.2723889350891118	40.79573059082031	-371.23382568359375	-10.134062767028809	-79.40119934082031	-513.9925537109375	-0.0	-0.0	-0.0	-0.0	-0.0	-0.0	128448.7578125	-4043.39111328125	-4801.75537109375
0.0115	-0.0	-0.0	-0.0	-1.810478687286377	41.08911895751953	-375.0355529785156	-10.592915534973145	-79.0840835571289	-509.9043884277344	-0.0	-0.0	-0.0	-0.0	-0.0	-0.0	127686.640625	-3888.389404296875	-4951.8515625
0.012	-0.0	-0.0	-0.0	-1.1701467037200928	41.14112091064453	-377.0725402832031	-10.88023853302002	-78.37239074707031	-509.0221252441406	-0.0	-0.0	-0.0	-0.0	-0.0	-0.0	126726.3203125	-3264.606689453125	-4965.78076171875
0.0125	-0.0	-0.0	-0.0	-0.7447329759597778	41.93906021118164	-383.32318115234375	-10.713333129882812	-77.99834442138672	-504.8732299804688	-0.0	-0.0	-0.0	-0.0	-0.0	-0.0	126310.8984375	-3249.65380859375	-5257.228515625
0.013000000000000001	-0.0	-0.0	-0.0	0.1578047424554824	41.94952774047852	-387.7915649414063	-11.037375450134276	-77.62451934814453	-502.2671203613281	-0.0	-0.0	-0.0	-0.0	-0.0	-0.0	125430.265625	-2970.64892578125	-5235.9853515625
0.0135	-0.0	-0.0	-0.0	0.0715954229235649	42.583892822265625	-392.8170776367188	-11.215195655822754	-77.28147888183594	-498.8572692871094	-0.0	-0.0	-0.0	-0.0	-0.0	-0.0	124573.703125	-2659.212646484375	-5288.38818359375
0.014	-0.0	-0.0	-0.0	0.4155502319335937	42.96085357666016	-397.2066955566406	-11.512092590332031	-76.45625305175781	-497.4211730957031	-0.0	-0.0	-0.0	-0.0	-0.0	-0.0	123485.921875	-2179.00146484375	-5423.06640625
0.0145	-0.0	-0.0	-0.0	0.8820178508758545	42.82290649414063	-401.5718078613281	-11.925580978393556	-75.8582992553711	-492.0736083984375	-0.0	-0.0	-0.0	-0.0	-0.0	-0.0	122577.2421875	-2150.056884765625	-5518.9658203125
0.015	-0.0	-0.0	-0.0	0.902151107788086	43.80197143554688	-406.7487487792969	-11.572537422180176	-75.51504516601562	-489.43157958984375	-0.0	-0.0	-0.0	-0.0	-0.0	-0.0	121732.875	-1775.646728515625	-5656.86865234375
0.0155	-0.0	-0.0	-0.0	1.0413410663604736	43.45730972290039	-413.1017150878906	-12.044681549072266	-74.89678955078125	-484.0814514160156	-0.0	-0.0	-0.0	-0.0	-0.0	-0.0	120697.3515625	-1260.7879638671875	-5759.43212890625
